<svg xmlns="http://www.w3.org/2000/svg" width="319" height="67.63" viewBox="0 0 319 67.63"><title>CFMoto logo - Brandlogos.net</title><path d="M386.31,478.19A33.81,33.81,0,1,0,420.13,512a33.87,33.87,0,0,0-33.81-33.81m0,7.53A26.24,26.24,0,1,1,360.07,512a26.25,26.25,0,0,1,26.24-26.24" transform="translate(-352.5 -478.19)"/><path d="M610.85,526.76V504.09H598l2-5a2.91,2.91,0,0,1,2.73-1.89h30.7l-2,5a3,3,0,0,1-2.73,1.85H619.6v22.67Z" transform="translate(-352.5 -478.19)"/><path d="M444.39,518.27v-12.7a1.49,1.49,0,0,1,1.47-1.47h19.81a2.91,2.91,0,0,0,2.73-1.89l1.93-5H444.1a8.54,8.54,0,0,0-8.5,8.54v12.45a8.57,8.57,0,0,0,2.48,6,8.42,8.42,0,0,0,6,2.57h20.78a3,3,0,0,0,2.78-1.89l2-5.13H445.87a1.49,1.49,0,0,1-1.47-1.47" transform="translate(-352.5 -478.19)"/><path d="M482.29,497.2a8.62,8.62,0,0,0-6,2.52,8.5,8.5,0,0,0-2.48,6v21h8.75v-7.95H498.1a3,3,0,0,0,2.78-1.89l1.93-5H482.58v-6.35a1.49,1.49,0,0,1,1.47-1.47h19.64a3,3,0,0,0,2.78-1.89l1.93-5H482.29Z" transform="translate(-352.5 -478.19)"/><path d="M532.8,525.88l-11.52-15.77v16.65h-8.75V497.2h7.15a3.15,3.15,0,0,1,2.57,1.35L532.8,513.6l10.43-15.06a3.15,3.15,0,0,1,2.57-1.35h7.28v29.57h-8.75v-16.7Z" transform="translate(-352.5 -478.19)"/><path d="M586,518.27a1.49,1.49,0,0,1-1.47,1.47H568.8a1.49,1.49,0,0,1-1.47-1.47v-12.7a1.49,1.49,0,0,1,1.47-1.47h15.77a1.49,1.49,0,0,1,1.47,1.47Zm.25-21.07H567.07a8.54,8.54,0,0,0-8.54,8.54v12.45a8.54,8.54,0,0,0,8.54,8.54h19.18a8.54,8.54,0,0,0,8.54-8.54V505.73a8.48,8.48,0,0,0-8.5-8.54" transform="translate(-352.5 -478.19)"/><path d="M662.79,518.27a1.49,1.49,0,0,1-1.47,1.47H645.55a1.49,1.49,0,0,1-1.47-1.47v-12.7a1.49,1.49,0,0,1,1.47-1.47h15.77a1.49,1.49,0,0,1,1.47,1.47ZM663,497.2H643.78a8.54,8.54,0,0,0-8.54,8.54v12.45a8.54,8.54,0,0,0,8.54,8.54H663a8.54,8.54,0,0,0,8.54-8.54V505.73a8.43,8.43,0,0,0-8.5-8.54" transform="translate(-352.5 -478.19)"/><path d="M378.36,507.42a31.1,31.1,0,0,1,8.92,1.51,30.22,30.22,0,0,0,16.78.46,3.46,3.46,0,0,0,2.44-2.31l1.64-6a41.29,41.29,0,0,1-9.8,1.43,30.46,30.46,0,0,1-8.92-1.43,32.37,32.37,0,0,0-9-1.47,38.11,38.11,0,0,0-7.78,1,3.13,3.13,0,0,0-2.4,2.31l-1.64,6h0l-3.41,12.53-.38,1.3a40.37,40.37,0,0,1,9.72-1.51,30.72,30.72,0,0,1,8.92,1.51,30.22,30.22,0,0,0,16.78.46,3.46,3.46,0,0,0,2.44-2.31l1.64-6a41.29,41.29,0,0,1-9.8,1.43,30.46,30.46,0,0,1-8.92-1.43,31.1,31.1,0,0,0-8.92-1.51h-.88l1.64-6a6.19,6.19,0,0,0,.88,0" transform="translate(-352.5 -478.19)"/></svg>